<svg xmlns="http://www.w3.org/2000/svg" xmlns:xlink="http://www.w3.org/1999/xlink" width="1080" zoomAndPan="magnify" viewBox="0 0 810 809.999993" height="1080" preserveAspectRatio="xMidYMid meet" version="1.2"><defs><clipPath id="f5bbbad914"><path d="M 12 19.335938 L 799 19.335938 L 799 790.335938 L 12 790.335938 Z M 12 19.335938 "/></clipPath></defs><g id="d44d87f573"><g clip-rule="nonzero" clip-path="url(#f5bbbad914)"><path style=" stroke:none;fill-rule:nonzero;fill:#ffffff;fill-opacity:1;" d="M 798.160156 619.1875 L 752.046875 159.53125 C 744.042969 79.726562 677.507812 19.507812 597.28125 19.507812 L 214.058594 19.507812 C 133.835938 19.507812 67.296875 79.726562 59.296875 159.53125 L 13.183594 619.1875 C 8.761719 662.773438 23.289062 706.570312 52.558594 738.996094 C 81.828125 771.425781 123.9375 790.164062 167.945312 790.164062 L 643.183594 790.164062 C 686.980469 790.164062 729.09375 771.425781 758.574219 738.996094 C 788.050781 706.570312 802.371094 662.773438 797.949219 619.1875 Z M 727.410156 710.78125 C 705.933594 734.574219 675.402344 748.050781 643.394531 748.050781 L 168.15625 748.050781 C 136.152344 748.050781 105.621094 734.363281 84.144531 710.78125 C 62.664062 686.988281 52.136719 655.195312 55.296875 623.398438 L 101.410156 163.742188 C 107.304688 105.628906 155.734375 61.621094 214.269531 61.621094 L 597.492188 61.621094 C 656.027344 61.621094 704.457031 105.417969 710.355469 163.742188 L 756.46875 623.398438 C 759.625 655.195312 749.097656 686.988281 727.621094 710.78125 Z M 582.753906 170.480469 L 582.753906 208.171875 C 582.753906 298.5 503.371094 371.777344 405.671875 371.777344 C 307.96875 371.777344 228.589844 298.292969 228.589844 208.171875 L 228.589844 170.480469 C 228.589844 158.898438 238.0625 149.425781 249.644531 149.425781 C 261.226562 149.425781 270.699219 158.898438 270.699219 170.480469 L 270.699219 208.171875 C 270.699219 275.128906 331.34375 329.664062 405.671875 329.664062 C 480 329.664062 540.640625 275.128906 540.640625 208.171875 L 540.640625 170.480469 C 540.640625 158.898438 550.117188 149.425781 561.699219 149.425781 C 573.277344 149.425781 582.753906 158.898438 582.753906 170.480469 Z M 582.753906 170.480469 "/></g></g></svg>