<svg xmlns="http://www.w3.org/2000/svg" xmlns:xlink="http://www.w3.org/1999/xlink" width="1080" zoomAndPan="magnify" viewBox="0 0 810 809.999993" height="1080" preserveAspectRatio="xMidYMid meet" version="1.2"><defs><clipPath id="f7e0037f1c"><path d="M 169 237 L 641.839844 237 L 641.839844 689.800781 L 169 689.800781 Z M 169 237 "/></clipPath><clipPath id="19afa7e22a"><path d="M 287 120.550781 L 525 120.550781 L 525 333 L 287 333 Z M 287 120.550781 "/></clipPath><clipPath id="4be8302778"><path d="M 705.25 14.027344 L 810 14.027344 L 810 120.550781 L 705.25 120.550781 Z M 705.25 14.027344 "/></clipPath></defs><g id="b4f0ec773f"><g clip-rule="nonzero" clip-path="url(#f7e0037f1c)"><path style=" stroke:none;fill-rule:nonzero;fill:#ffffff;fill-opacity:1;" d="M 606.863281 689.058594 L 205.195312 689.058594 C 195.445312 689.058594 185.976562 684.992188 179.292969 677.902344 C 172.585938 670.8125 169.042969 661.15625 169.589844 651.402344 L 190.734375 270.8125 C 191.78125 251.902344 207.410156 237.105469 226.34375 237.105469 L 585.714844 237.105469 C 604.652344 237.105469 620.277344 251.902344 621.324219 270.8125 L 642.472656 651.402344 C 643.019531 661.15625 639.476562 670.8125 632.765625 677.902344 C 626.058594 684.992188 616.617188 689.058594 606.863281 689.058594 Z M 226.34375 260.894531 C 220.039062 260.894531 214.808594 265.839844 214.472656 272.121094 L 193.328125 652.710938 C 193.160156 656.019531 194.300781 659.15625 196.5625 661.5625 C 198.847656 663.9375 201.890625 665.269531 205.195312 665.269531 L 606.863281 665.269531 C 610.167969 665.269531 613.238281 663.9375 615.496094 661.5625 C 617.757812 659.15625 618.921875 656.019531 618.734375 652.710938 L 597.585938 272.121094 C 597.253906 265.839844 592.019531 260.894531 585.714844 260.894531 Z M 226.34375 260.894531 "/></g><g clip-rule="nonzero" clip-path="url(#19afa7e22a)"><path style=" stroke:none;fill-rule:nonzero;fill:#ffffff;fill-opacity:1;" d="M 513.070312 332.824219 C 506.507812 332.824219 501.175781 327.496094 501.175781 320.933594 L 501.175781 239.296875 C 501.175781 186.820312 458.503906 144.148438 406.03125 144.148438 C 353.554688 144.148438 310.882812 186.820312 310.882812 239.296875 L 310.882812 320.933594 C 310.882812 327.496094 305.554688 332.824219 298.988281 332.824219 C 292.421875 332.824219 287.09375 327.496094 287.09375 320.933594 L 287.09375 239.296875 C 287.09375 173.714844 340.449219 120.359375 406.03125 120.359375 C 471.609375 120.359375 524.964844 173.714844 524.964844 239.296875 L 524.964844 320.933594 C 524.964844 327.496094 519.636719 332.824219 513.070312 332.824219 Z M 513.070312 332.824219 "/></g><g clip-rule="nonzero" clip-path="url(#4be8302778)"><path style=" stroke:none;fill-rule:nonzero;fill:#fffbef;fill-opacity:1;" d="M 705.25 14.027344 L 810 14.027344 L 810 120.414062 L 705.25 120.414062 Z M 705.25 14.027344 "/></g></g></svg>