<svg xmlns="http://www.w3.org/2000/svg" xmlns:xlink="http://www.w3.org/1999/xlink" width="1080" zoomAndPan="magnify" viewBox="0 0 810 809.999993" height="1080" preserveAspectRatio="xMidYMid meet" version="1.2"><defs><clipPath id="a4afd119be"><path d="M 641.441406 134.171875 L 746.191406 134.171875 L 746.191406 240.695312 L 641.441406 240.695312 Z M 641.441406 134.171875 "/></clipPath></defs><g id="9bb05267c7"><g clip-rule="nonzero" clip-path="url(#a4afd119be)"><path style=" stroke:none;fill-rule:nonzero;fill:#fffbef;fill-opacity:1;" d="M 641.441406 134.171875 L 746.191406 134.171875 L 746.191406 240.558594 L 641.441406 240.558594 Z M 641.441406 134.171875 "/></g><path style=" stroke:none;fill-rule:nonzero;fill:#666666;fill-opacity:1;" d="M 800.414062 776.925781 L 629.988281 605.410156 C 752.347656 468.851562 742.515625 259.09375 605.957031 135.644531 C 469.394531 12.195312 259.640625 23.121094 136.191406 159.679688 C 12.742188 296.238281 23.667969 505.996094 160.226562 629.445312 C 286.953125 744.152344 480.320312 744.152344 607.046875 629.445312 L 778.566406 800.960938 Z M 383.089844 681.882812 C 218.128906 681.882812 83.753906 547.507812 83.753906 382.542969 C 83.753906 216.488281 218.128906 83.207031 383.089844 83.207031 C 548.054688 83.207031 682.429688 217.582031 682.429688 382.542969 C 682.429688 547.507812 548.054688 681.882812 383.089844 681.882812 Z M 383.089844 681.882812 "/><path style=" stroke:none;fill-rule:nonzero;fill:#666666;fill-opacity:1;" d="M 383.089844 128 L 383.089844 160.773438 C 505.449219 160.773438 604.863281 260.1875 604.863281 382.542969 L 637.636719 382.542969 C 637.636719 241.617188 524.019531 128 383.089844 128 Z M 383.089844 128 "/></g></svg>