<svg xmlns="http://www.w3.org/2000/svg" xmlns:xlink="http://www.w3.org/1999/xlink" width="1080" zoomAndPan="magnify" viewBox="0 0 810 809.999993" height="1080" preserveAspectRatio="xMidYMid meet" version="1.2"><defs><clipPath id="e387d9c57d"><path d="M 11.792969 13.265625 L 796 13.265625 L 796 797.015625 L 11.792969 797.015625 Z M 11.792969 13.265625 "/></clipPath><clipPath id="6297f4be3d"><path d="M 495.378906 144.605469 L 521.136719 144.605469 L 521.136719 173.625 L 495.378906 173.625 Z M 495.378906 144.605469 "/></clipPath></defs><g id="da6f9d2c1f"><path style=" stroke:none;fill-rule:nonzero;fill:#ffffff;fill-opacity:1;" d="M 307.226562 128.058594 C 258.9375 128.058594 213.566406 146.859375 179.433594 181 C 171.15625 189.28125 171.15625 202.675781 179.433594 210.957031 C 183.570312 215.089844 188.984375 217.152344 194.40625 217.152344 C 199.824219 217.152344 205.246094 215.089844 209.378906 210.957031 C 235.511719 184.816406 270.261719 170.417969 307.226562 170.417969 C 344.1875 170.417969 378.929688 184.816406 405.070312 210.957031 C 413.339844 219.226562 426.746094 219.226562 435.015625 210.957031 C 443.292969 202.675781 443.292969 189.28125 435.015625 181 C 400.882812 146.859375 355.496094 128.058594 307.226562 128.058594 "/><g clip-rule="nonzero" clip-path="url(#e387d9c57d)"><path style=" stroke:none;fill-rule:nonzero;fill:#ffffff;fill-opacity:1;" d="M 687.949219 720.332031 L 578.605469 610.976562 L 609.410156 580.164062 L 718.753906 689.515625 Z M 307.226562 540.640625 C 245.304688 540.640625 187.085938 516.511719 143.292969 472.726562 C 99.503906 428.9375 75.394531 370.71875 75.394531 308.800781 C 75.394531 246.855469 99.503906 188.636719 143.292969 144.851562 C 187.085938 101.070312 245.304688 76.933594 307.226562 76.933594 C 369.144531 76.933594 427.363281 101.070312 471.15625 144.851562 C 514.945312 188.636719 539.058594 246.855469 539.058594 308.800781 C 539.058594 370.71875 514.945312 428.9375 471.15625 472.726562 C 427.363281 516.511719 369.144531 540.640625 307.226562 540.640625 Z M 786.132812 667.046875 L 631.871094 512.785156 C 619.953125 500.867188 598.859375 500.867188 586.945312 512.785156 L 571.554688 528.183594 L 537.351562 493.984375 C 579.613281 441.664062 602.59375 377.003906 602.59375 308.800781 C 602.59375 229.878906 571.867188 155.714844 516.085938 99.933594 C 460.292969 44.132812 386.128906 13.394531 307.226562 13.394531 C 228.324219 13.394531 154.15625 44.132812 98.367188 99.933594 C 42.582031 155.714844 11.855469 229.878906 11.855469 308.800781 C 11.855469 387.703125 42.582031 461.859375 98.367188 517.644531 C 154.15625 573.441406 228.324219 604.179688 307.226562 604.179688 C 375.4375 604.179688 440.105469 581.191406 492.433594 538.902344 L 526.636719 573.101562 L 511.21875 588.519531 C 498.8125 600.933594 498.8125 621.03125 511.21875 633.445312 L 665.488281 787.707031 C 671.445312 793.660156 679.523438 797.011719 687.949219 797.011719 C 696.375 797.011719 704.453125 793.660156 710.40625 787.707031 L 786.132812 711.972656 C 798.546875 699.558594 798.546875 679.460938 786.132812 667.046875 "/></g><path style=" stroke:none;fill-rule:nonzero;fill:#ffffff;fill-opacity:1;" d="M 468.277344 230.636719 C 456.046875 230.636719 446.132812 240.542969 446.132812 252.773438 C 446.132812 265.003906 456.046875 274.910156 468.277344 274.910156 C 480.507812 274.910156 490.414062 265.003906 490.414062 252.773438 C 490.414062 240.542969 480.507812 230.636719 468.277344 230.636719 "/><g clip-rule="nonzero" clip-path="url(#6297f4be3d)"><path style=" stroke:none;fill-rule:nonzero;fill:#ffffff;fill-opacity:1;" d="M 495.378906 144.605469 L 521.136719 144.605469 L 521.136719 173.582031 L 495.378906 173.582031 Z M 495.378906 144.605469 "/></g></g></svg>