<svg xmlns="http://www.w3.org/2000/svg" xmlns:xlink="http://www.w3.org/1999/xlink" width="1080" zoomAndPan="magnify" viewBox="0 0 810 809.999993" height="1080" preserveAspectRatio="xMidYMid meet" version="1.2"><defs><clipPath id="4a691e0f83"><path d="M 641.441406 134.171875 L 746.191406 134.171875 L 746.191406 240.695312 L 641.441406 240.695312 Z M 641.441406 134.171875 "/></clipPath><clipPath id="663eac10d6"><path d="M 320.414062 307.351562 L 489 307.351562 L 489 502.351562 L 320.414062 502.351562 Z M 320.414062 307.351562 "/></clipPath></defs><g id="608b7f097b"><g clip-rule="nonzero" clip-path="url(#4a691e0f83)"><path style=" stroke:none;fill-rule:nonzero;fill:#fffbef;fill-opacity:1;" d="M 641.441406 134.171875 L 746.191406 134.171875 L 746.191406 240.558594 L 641.441406 240.558594 Z M 641.441406 134.171875 "/></g><g clip-rule="nonzero" clip-path="url(#663eac10d6)"><path style=" stroke:none;fill-rule:nonzero;fill:#ffffff;fill-opacity:1;" d="M 475.582031 328.464844 L 447.472656 328.464844 L 447.472656 324.453125 C 447.472656 315.039062 439.816406 307.382812 430.40625 307.382812 L 379.121094 307.382812 C 369.707031 307.382812 362.050781 315.039062 362.050781 324.453125 L 362.050781 328.464844 L 333.945312 328.464844 C 326.582031 328.464844 320.589844 334.453125 320.589844 341.816406 L 320.589844 348.148438 C 320.589844 355.039062 325.839844 360.726562 332.546875 361.429688 L 346.300781 482.105469 C 347.609375 493.628906 357.351562 502.320312 368.949219 502.320312 L 440.574219 502.320312 C 452.175781 502.320312 461.914062 493.628906 463.222656 482.105469 L 476.976562 361.429688 C 483.6875 360.730469 488.933594 355.039062 488.933594 348.148438 L 488.933594 341.816406 C 488.933594 334.453125 482.941406 328.464844 475.578125 328.464844 Z M 370.71875 324.453125 C 370.71875 319.816406 374.488281 316.050781 379.121094 316.050781 L 430.40625 316.050781 C 435.042969 316.050781 438.808594 319.816406 438.808594 324.453125 L 438.808594 328.464844 L 370.71875 328.464844 Z M 454.617188 481.121094 C 453.804688 488.265625 447.765625 493.652344 440.578125 493.652344 L 368.953125 493.652344 C 361.765625 493.652344 355.730469 488.265625 354.917969 481.121094 L 341.285156 361.503906 L 468.25 361.503906 Z M 480.269531 348.148438 C 480.269531 350.734375 478.167969 352.835938 475.582031 352.835938 L 333.945312 352.835938 C 331.359375 352.835938 329.257812 350.734375 329.257812 348.148438 L 329.257812 341.816406 C 329.257812 339.234375 331.359375 337.128906 333.945312 337.128906 L 475.578125 337.128906 C 478.164062 337.128906 480.265625 339.234375 480.265625 341.816406 L 480.265625 348.148438 Z M 480.269531 348.148438 "/></g><path style=" stroke:none;fill-rule:nonzero;fill:#ffffff;fill-opacity:1;" d="M 404.761719 470.199219 C 407.15625 470.199219 409.097656 468.257812 409.097656 465.867188 L 409.097656 389.289062 C 409.097656 386.898438 407.15625 384.957031 404.761719 384.957031 C 402.371094 384.957031 400.429688 386.898438 400.429688 389.289062 L 400.429688 465.867188 C 400.429688 468.257812 402.371094 470.199219 404.761719 470.199219 Z M 404.761719 470.199219 "/><path style=" stroke:none;fill-rule:nonzero;fill:#ffffff;fill-opacity:1;" d="M 430.667969 469.996094 C 430.8125 470.011719 430.953125 470.019531 431.09375 470.019531 C 433.296875 470.019531 435.183594 468.347656 435.398438 466.105469 L 442.824219 389.890625 C 443.054688 387.507812 441.3125 385.390625 438.929688 385.15625 C 436.515625 384.910156 434.429688 386.667969 434.195312 389.046875 L 426.773438 465.261719 C 426.542969 467.644531 428.285156 469.765625 430.664062 469.996094 Z M 430.667969 469.996094 "/><path style=" stroke:none;fill-rule:nonzero;fill:#ffffff;fill-opacity:1;" d="M 378.433594 470.019531 C 378.574219 470.019531 378.714844 470.011719 378.859375 469.996094 C 381.238281 469.765625 382.980469 467.644531 382.75 465.261719 L 375.328125 389.046875 C 375.09375 386.667969 373.007812 384.914062 370.59375 385.15625 C 368.210938 385.386719 366.46875 387.507812 366.703125 389.890625 L 374.125 466.105469 C 374.34375 468.34375 376.226562 470.019531 378.429688 470.019531 Z M 378.433594 470.019531 "/></g></svg>