<svg xmlns="http://www.w3.org/2000/svg" xmlns:xlink="http://www.w3.org/1999/xlink" width="1080" zoomAndPan="magnify" viewBox="0 0 810 809.999993" height="1080" preserveAspectRatio="xMidYMid meet" version="1.2"><defs><clipPath id="6357db471b"><path d="M 641.441406 134.171875 L 746.191406 134.171875 L 746.191406 240.695312 L 641.441406 240.695312 Z M 641.441406 134.171875 "/></clipPath><clipPath id="324f09edb1"><path d="M 300 283.664062 L 509.890625 283.664062 L 509.890625 526.664062 L 300 526.664062 Z M 300 283.664062 "/></clipPath></defs><g id="c50bd7e53d"><g clip-rule="nonzero" clip-path="url(#6357db471b)"><path style=" stroke:none;fill-rule:nonzero;fill:#fffbef;fill-opacity:1;" d="M 641.441406 134.171875 L 746.191406 134.171875 L 746.191406 240.558594 L 641.441406 240.558594 Z M 641.441406 134.171875 "/></g><g clip-rule="nonzero" clip-path="url(#324f09edb1)"><path style=" stroke:none;fill-rule:nonzero;fill:#ffffff;fill-opacity:1;" d="M 492.796875 309.910156 L 457.855469 309.910156 L 457.855469 304.921875 C 457.855469 293.21875 448.335938 283.699219 436.636719 283.699219 L 372.878906 283.699219 C 361.175781 283.699219 351.65625 293.21875 351.65625 304.921875 L 351.65625 309.910156 L 316.714844 309.910156 C 307.5625 309.910156 300.109375 317.355469 300.109375 326.511719 L 300.109375 334.382812 C 300.109375 342.949219 306.636719 350.019531 314.976562 350.894531 L 332.074219 500.917969 C 333.703125 515.246094 345.8125 526.050781 360.234375 526.050781 L 449.277344 526.050781 C 463.699219 526.050781 475.808594 515.246094 477.4375 500.917969 L 494.53125 350.894531 C 502.875 350.023438 509.398438 342.949219 509.398438 334.382812 L 509.398438 326.511719 C 509.398438 317.355469 501.949219 309.910156 492.796875 309.910156 Z M 362.433594 304.921875 C 362.433594 299.160156 367.117188 294.476562 372.878906 294.476562 L 436.636719 294.476562 C 442.398438 294.476562 447.085938 299.160156 447.085938 304.921875 L 447.085938 309.910156 L 362.433594 309.910156 Z M 466.734375 499.699219 C 465.726562 508.578125 458.21875 515.277344 449.28125 515.277344 L 360.238281 515.277344 C 351.300781 515.277344 343.796875 508.578125 342.785156 499.699219 L 325.839844 350.984375 L 483.683594 350.984375 L 466.738281 499.699219 Z M 498.628906 334.382812 C 498.628906 337.59375 496.015625 340.210938 492.800781 340.210938 L 316.714844 340.210938 C 313.5 340.210938 310.886719 337.59375 310.886719 334.382812 L 310.886719 326.511719 C 310.886719 323.300781 313.5 320.683594 316.714844 320.683594 L 492.796875 320.683594 C 496.007812 320.683594 498.625 323.300781 498.625 326.511719 L 498.625 334.382812 Z M 498.628906 334.382812 "/></g><path style=" stroke:none;fill-rule:nonzero;fill:#ffffff;fill-opacity:1;" d="M 404.757812 486.117188 C 407.730469 486.117188 410.144531 483.703125 410.144531 480.730469 L 410.144531 385.53125 C 410.144531 382.558594 407.730469 380.144531 404.757812 380.144531 C 401.78125 380.144531 399.371094 382.558594 399.371094 385.53125 L 399.371094 480.730469 C 399.371094 483.703125 401.78125 486.117188 404.757812 486.117188 Z M 404.757812 486.117188 "/><path style=" stroke:none;fill-rule:nonzero;fill:#ffffff;fill-opacity:1;" d="M 436.960938 485.867188 C 437.140625 485.886719 437.316406 485.894531 437.488281 485.894531 C 440.230469 485.894531 442.574219 483.8125 442.84375 481.027344 L 452.074219 386.277344 C 452.363281 383.3125 450.195312 380.679688 447.234375 380.390625 C 444.230469 380.085938 441.636719 382.269531 441.351562 385.230469 L 432.121094 479.980469 C 431.832031 482.945312 434 485.578125 436.960938 485.867188 Z M 436.960938 485.867188 "/><path style=" stroke:none;fill-rule:nonzero;fill:#ffffff;fill-opacity:1;" d="M 372.023438 485.894531 C 372.195312 485.894531 372.375 485.886719 372.550781 485.867188 C 375.511719 485.582031 377.675781 482.945312 377.390625 479.980469 L 368.160156 385.230469 C 367.871094 382.269531 365.277344 380.089844 362.273438 380.390625 C 359.316406 380.675781 357.148438 383.3125 357.4375 386.277344 L 366.664062 481.027344 C 366.9375 483.8125 369.28125 485.894531 372.019531 485.894531 Z M 372.023438 485.894531 "/></g></svg>